<?xml version="1.0" encoding="UTF-8"?>
<svg xmlns="http://www.w3.org/2000/svg" xmlns:xlink="http://www.w3.org/1999/xlink" width="792pt" height="432pt" viewBox="0 0 792 432" version="1.1">
<g id="surface1">
<path style=" stroke:none;fill-rule:nonzero;fill:rgb(10.519409%,25.071716%,18.42804%);fill-opacity:1;" d="M 14.957031 84.015625 L 25.167969 84.015625 L 25.167969 114.132812 L 30.183594 114.132812 L 30.183594 84.015625 L 40.523438 84.015625 L 40.523438 79.863281 L 14.957031 79.863281 Z M 14.957031 84.015625 "/>
<path style=" stroke:none;fill-rule:nonzero;fill:rgb(10.519409%,25.071716%,18.42804%);fill-opacity:1;" d="M 72.011719 94.285156 L 53.558594 94.285156 L 53.558594 79.859375 L 48.558594 79.859375 L 48.558594 114.132812 L 53.558594 114.132812 L 53.558594 98.585938 L 72.011719 98.585938 L 72.011719 114.132812 L 77.019531 114.132812 L 77.019531 79.859375 L 72.011719 79.859375 Z M 72.011719 94.285156 "/>
<path style=" stroke:none;fill-rule:nonzero;fill:rgb(10.519409%,25.071716%,18.42804%);fill-opacity:1;" d="M 109.222656 110.117188 L 95.582031 110.117188 L 95.582031 98.382812 L 108.640625 98.382812 L 108.640625 94.546875 L 95.582031 94.546875 L 95.582031 83.75 L 109.222656 83.75 L 109.222656 79.859375 L 90.578125 79.859375 L 90.578125 114.132812 L 109.222656 114.132812 Z M 109.222656 110.117188 "/>
<path style=" stroke:none;fill-rule:nonzero;fill:rgb(10.519409%,25.071716%,18.42804%);fill-opacity:1;" d="M 640.351562 226.105469 L 640.203125 226.074219 C 637.554688 225.472656 632.871094 223.296875 631.222656 215.328125 C 630.199219 210.324219 631.511719 205.207031 635.039062 200.566406 C 640.363281 193.492188 645.582031 188.757812 652.699219 188.511719 C 652.699219 188.511719 657.996094 188.554688 660.667969 190.449219 C 662.867188 191.988281 663.355469 194.988281 663.355469 194.988281 C 664.414062 203.25 663.496094 205.992188 659.980469 214.027344 C 656.070312 222.964844 646.878906 227.457031 640.351562 226.105469 M 466.003906 211.234375 C 461.652344 218.5625 456.585938 222.460938 451.375 221.371094 L 451.15625 221.335938 C 444.429688 219.742188 440.582031 213.289062 441.125 204.460938 C 441.832031 192.625 450.691406 177.753906 463.488281 180.417969 L 463.714844 180.46875 C 464.496094 180.65625 465.289062 180.886719 466.066406 181.195312 C 466.066406 181.195312 479.21875 189.066406 466.003906 211.234375 M 174.910156 139.464844 L 174.113281 139.660156 C 169.304688 140.917969 164.617188 142.207031 160.175781 143.5 L 154.910156 145.035156 L 157.472656 140.234375 C 168.96875 118.503906 182.539062 105.566406 189.59375 99.796875 L 192.871094 102.820312 C 190.039062 107.714844 182.660156 121.03125 175.238281 138.699219 Z M 671.972656 239.191406 L 672.257812 239.253906 C 681.800781 241.242188 691.660156 238.203125 699.257812 233.726562 C 704.257812 230.789062 705.789062 227.257812 708.503906 227.925781 C 709.769531 228.238281 711.652344 235.765625 723.199219 238.34375 C 726.445312 239.066406 733.664062 237.050781 739.164062 235.347656 C 750.902344 231.6875 761.164062 222.832031 767.625 213.929688 C 778.707031 198.707031 780.925781 188.488281 769.332031 199.011719 C 758.136719 209.128906 738.964844 225.53125 729.332031 219.554688 C 724.996094 216.886719 724.53125 207.144531 724.53125 207.144531 C 723.238281 188.207031 734.289062 155.523438 737.917969 155.078125 C 744.707031 153.167969 756.792969 150.652344 764.527344 149.386719 C 769.613281 148.542969 777.808594 136.339844 774.210938 133.304688 C 772.78125 132.113281 742.789062 141.363281 739.832031 137.132812 C 735.410156 129.34375 751.128906 113.691406 748.875 106.585938 C 748.179688 104.371094 736.625 106.078125 733.382812 108.417969 C 729.039062 111.5625 728.152344 117.28125 723.582031 127.972656 C 722.839844 129.640625 720.820312 135.71875 719.203125 137.824219 C 718.03125 139.398438 715.039062 138.925781 712.785156 139.042969 C 703.160156 139.558594 693.605469 139.234375 690.816406 145.523438 C 690.027344 147.53125 689.617188 150.4375 690.671875 152.242188 C 692.0625 154.578125 693.480469 154.152344 698.621094 152.566406 C 702.957031 151.222656 715.488281 149.433594 715.976562 153.636719 C 716.351562 156.867188 695.527344 225.269531 681.390625 223.277344 C 677.761719 222.773438 677.082031 218.539062 677.082031 218.539062 C 675.042969 211.4375 679.085938 206.539062 681.363281 199.527344 C 684.15625 190.828125 692.824219 172.53125 685.363281 173.871094 C 674.5625 175.8125 670.207031 178.132812 668.335938 181.726562 C 667.355469 183.628906 659.832031 171.121094 652.65625 172.300781 C 626.941406 176.59375 617.613281 196.367188 615.699219 201.773438 C 614.726562 204.539062 615.113281 210.695312 612.050781 217.53125 C 610.367188 221.359375 600.371094 222.613281 595.28125 221.835938 C 595.28125 221.835938 590.832031 221.449219 589.480469 219.394531 C 589.199219 218.933594 588.714844 216.722656 588.714844 216.722656 C 588.371094 208.753906 591.804688 204.96875 594.042969 201.445312 C 596.042969 198.28125 597.503906 195.976562 596.945312 191.765625 C 596.449219 187.726562 594.160156 186.078125 589.480469 182.972656 C 587.054688 181.375 584.332031 179.558594 581.691406 177 C 579.304688 174.636719 577.710938 171.894531 576.15625 169.238281 C 574.164062 165.820312 574.128906 162.679688 570.910156 163.136719 C 564.046875 164.132812 561.617188 175.867188 556.414062 183.636719 C 542.003906 205.148438 529.84375 222.542969 515.152344 222.519531 C 510.121094 222.519531 507.273438 215.066406 507.273438 215.066406 C 504.460938 201.234375 510.042969 190.242188 516.3125 184.847656 C 526.480469 176.117188 535.949219 172.839844 537.039062 179.382812 C 537.277344 180.65625 535.003906 181.824219 533.894531 183.5625 C 533.140625 184.761719 530.464844 190.933594 537.40625 192.375 C 543 193.542969 545.546875 185.296875 545.570312 180.980469 C 545.570312 179.210938 545.292969 174.828125 543.9375 173.347656 C 543.9375 173.347656 537.066406 164.6875 527.277344 165.175781 C 520.8125 165.527344 516.414062 165.988281 504.160156 176.65625 C 496.621094 183.242188 492.46875 187.484375 483.957031 185.839844 C 480.371094 184.28125 477.414062 180.417969 476.003906 176.902344 C 472.460938 168.039062 464.527344 167.753906 464.527344 167.753906 C 448.597656 164.453125 440.234375 172.125 433.652344 179.566406 C 430.171875 183.503906 428 189.6875 425.886719 195.660156 C 421.664062 207.683594 416.855469 221.289062 400.164062 217.832031 C 400.164062 217.832031 398.90625 217.875 396.601562 215.851562 C 390.214844 210.296875 396.660156 187.335938 397.597656 183.230469 C 401.3125 170.304688 403.65625 149.648438 404.949219 149.074219 C 409.039062 147.253906 411.855469 146.488281 421.394531 146.335938 C 433.90625 146.109375 442.0625 131.976562 436.191406 130.65625 C 436.191406 130.65625 431.246094 130.839844 419.140625 132.066406 C 419.140625 132.066406 405.980469 134.058594 407.761719 131.449219 C 409.5625 126.015625 409.71875 124.097656 411.730469 119.601562 C 418.75 103.816406 404.046875 109.574219 404.046875 109.574219 C 397.246094 111.171875 397.539062 113.203125 393.441406 124.964844 C 392.691406 127.132812 390.179688 134.722656 390.179688 134.722656 C 390.179688 134.722656 386.574219 136.203125 381.433594 137.382812 C 380.109375 137.683594 378.640625 138.011719 377.070312 138.324219 C 369.511719 139.894531 363.824219 141.234375 362.066406 142.113281 C 359.402344 143.457031 359.675781 151.988281 360.140625 152.777344 C 360.734375 153.804688 365.898438 154.039062 369.136719 152.707031 C 372.59375 151.324219 385.148438 149.59375 387.128906 149.835938 C 389.125 150.070312 386.652344 155.320312 386.652344 155.320312 C 371.019531 219.660156 350.421875 219.363281 350.421875 219.363281 C 350.421875 219.363281 362.570312 206.660156 344.960938 177.84375 C 340.664062 170.796875 343.132812 164.820312 339.089844 159.976562 C 336.46875 156.808594 319.769531 174.265625 314.5 189.542969 C 309.132812 205.003906 303.097656 222.542969 284.84375 219.621094 C 284.84375 219.621094 282.859375 218.976562 282.152344 216.460938 C 281.449219 213.957031 282.820312 202.40625 284.503906 195.351562 C 290.429688 170.726562 291.09375 169.054688 287.019531 168.441406 C 277.777344 166.632812 273.628906 169.164062 271.296875 177.394531 C 269.472656 182.671875 268.917969 189.667969 267.699219 196.527344 C 262.542969 225.390625 244.15625 225.003906 244.15625 225.003906 C 233.242188 224.371094 240.824219 211.125 242.855469 207.585938 C 244.417969 204.890625 245.636719 202.765625 245.164062 199.402344 C 244.53125 194.949219 241.351562 192.785156 235.769531 189.355469 C 232.65625 187.417969 229.429688 185.429688 226.394531 182.515625 C 223.65625 179.929688 221.902344 177.003906 220.332031 174.433594 C 218.972656 172.175781 217.804688 170.207031 216.378906 169.257812 L 215.945312 168.976562 L 215.664062 168.546875 C 215.261719 167.984375 214.472656 167.289062 211.554688 166.652344 C 210.855469 166.515625 210.316406 166.652344 209.828125 167.078125 C 208.011719 168.757812 207.824219 174.445312 208.417969 179.363281 L 208.4375 179.554688 L 208.429688 179.730469 C 208.195312 184.429688 205.480469 225.582031 186.597656 221.984375 C 183.867188 221.3125 181.832031 219.765625 180.359375 217.273438 C 175.023438 208.195312 178.308594 187.003906 190.097656 154.308594 L 190.457031 153.339844 L 191.492188 153.203125 C 198.972656 152.296875 206.417969 151.832031 213.636719 151.832031 L 213.828125 151.832031 L 214.035156 151.878906 C 228.4375 154.757812 233.597656 144.632812 233.8125 144.199219 L 233.886719 144.027344 C 235.585938 141.332031 238.316406 135.246094 236.484375 131.460938 C 235.648438 129.75 233.960938 128.636719 231.378906 128.066406 L 231.15625 128.007812 C 230.871094 127.945312 230.542969 127.890625 230.21875 127.851562 C 228.65625 128.09375 217.542969 129.871094 202.292969 133.085938 L 197.941406 133.992188 L 199.640625 129.925781 C 208.726562 108.261719 217.402344 90.996094 220.042969 86.574219 C 224.015625 79.863281 225.320312 75.734375 224.207031 73.148438 C 223.257812 70.992188 220.660156 69.417969 214.257812 67.121094 C 213.289062 66.773438 212.320312 66.480469 211.398438 66.285156 L 211.113281 66.222656 C 203.167969 64.5625 199.246094 68.601562 198.523438 69.417969 L 198.394531 69.605469 L 198.195312 69.726562 C 164.667969 91.855469 140.273438 120.582031 125.691406 155.078125 L 125.417969 155.675781 L 124.839844 155.957031 C 105.105469 164.554688 93.464844 173.601562 90.238281 182.847656 C 90.3125 185.878906 91.191406 187.605469 92.917969 187.996094 C 94.53125 188.339844 97.667969 187.816406 103.550781 183.429688 L 103.703125 183.320312 C 104.1875 182.957031 107.757812 180.714844 113.875 177.570312 L 118.40625 175.21875 L 117.039062 180.332031 C 101.226562 239.476562 116.253906 292.765625 116.898438 295 L 116.941406 295.203125 C 116.957031 295.246094 117.636719 298.449219 121.347656 299.269531 L 121.453125 299.292969 C 123.800781 299.785156 126.996094 299.269531 130.652344 297.824219 C 140.714844 293.808594 139.753906 283.320312 138.15625 275.800781 C 138.039062 275.160156 137.917969 274.601562 137.894531 274.359375 C 133.097656 232.824219 136.210938 195.742188 147.105469 164.175781 L 147.378906 163.378906 L 148.164062 163.117188 C 153.359375 161.386719 158.703125 159.824219 163.972656 158.449219 L 168.066406 157.402344 L 166.753906 161.445312 C 158.464844 187.296875 152.527344 221.34375 171.460938 236.882812 C 175.820312 240.457031 179.960938 242.703125 183.777344 243.542969 L 184.027344 243.609375 C 206.949219 248.359375 216.144531 227.878906 217.539062 186.828125 C 217.707031 181.957031 220.128906 186.515625 230.539062 198.058594 C 234.355469 202.296875 229.179688 211.695312 226.871094 217.832031 C 224.695312 223.707031 222.421875 229.785156 224.269531 234.304688 C 225.210938 236.550781 227.222656 238.453125 230.394531 240.0625 C 231.808594 240.761719 233.179688 241.28125 234.480469 241.574219 L 234.671875 241.613281 C 239.839844 242.695312 244.175781 240.921875 249.179688 238.648438 C 254.09375 236.429688 257.246094 234.808594 261.863281 230.832031 C 264.574219 228.464844 264.097656 226.738281 268.300781 231.46875 C 269.890625 233.269531 270.851562 233.753906 272.460938 235 C 277.546875 238.933594 285.632812 238.746094 286.207031 238.757812 C 301.0625 239.183594 307.632812 223.21875 314.234375 207.9375 C 321.550781 190.945312 328.160156 185.921875 330.023438 184.378906 C 331.910156 182.828125 333.210938 184.601562 333.210938 184.601562 C 342.132812 191.65625 344.753906 207.511719 338.609375 219.527344 C 337.417969 220.820312 333.546875 219.710938 333.546875 219.710938 C 324.066406 217.746094 321.019531 223.1875 320.753906 228.542969 C 320.535156 232.582031 323.386719 237.589844 332.042969 239.523438 L 332.40625 239.609375 C 333.84375 239.894531 335.394531 240.09375 337.023438 240.210938 C 344.789062 240.621094 351.519531 234.640625 358.457031 230.835938 C 363.613281 228.054688 368.375 226.996094 373.15625 223.421875 L 374.179688 223.335938 L 375.09375 224.046875 C 377.507812 225.890625 379.398438 227.507812 381.074219 228.914062 C 384.550781 231.878906 386.851562 233.839844 390.691406 235.105469 C 391.273438 235.296875 391.882812 235.441406 392.46875 235.597656 L 392.730469 235.632812 C 398.589844 236.882812 404.210938 235.621094 408.789062 232.976562 C 425.449219 223.386719 425.253906 228.292969 433.621094 236.5 C 436.074219 238.890625 438.5625 240.515625 441.398438 241.140625 L 441.582031 241.183594 C 458.035156 244.609375 475.984375 224.078125 478.542969 208.863281 C 480.445312 197.691406 477.613281 197.277344 486.011719 194.011719 C 490.730469 192.191406 492.558594 192.847656 491.167969 197.863281 C 486.371094 209.285156 487.46875 219.28125 488.039062 221.8125 C 491.246094 235.878906 505.347656 239.183594 505.347656 239.183594 C 508.601562 239.855469 517.417969 239.371094 521.277344 238.265625 C 541.351562 232.476562 547.472656 227.566406 570.082031 179.5 C 571.617188 176.246094 577.894531 186.703125 582.828125 195.175781 C 585.902344 200.449219 578.488281 204.480469 575.976562 210.1875 C 572.917969 217.074219 569.769531 224.183594 573.664062 232.527344 C 576.492188 235.058594 579.457031 236.640625 582.746094 237.375 L 583.027344 237.421875 C 590.203125 238.929688 597.828125 236.007812 604.597656 233.421875 C 607.730469 232.226562 612.8125 229.035156 614.839844 230.089844 C 615.851562 230.59375 617.476562 232.320312 617.476562 232.320312 C 621.484375 235.804688 624.871094 237.015625 630.414062 238.242188 L 630.910156 238.367188 C 648.246094 242.070312 655.734375 231.382812 659.382812 231.6875 C 661.378906 231.703125 663.496094 237.621094 671.972656 239.191406 "/>
<path style=" stroke:none;fill-rule:nonzero;fill:rgb(91.325378%,17.453003%,20.957947%);fill-opacity:1;" d="M 281.519531 155.839844 C 282.035156 156.171875 282.273438 156.238281 282.625 156.496094 C 283.132812 156.527344 283.304688 156.601562 283.871094 156.65625 C 289.238281 157.121094 297.488281 152.675781 301.414062 146.953125 C 303.324219 144.191406 304.527344 140.269531 303.226562 136.578125 C 301.441406 131.558594 295.855469 129.007812 290.503906 133.296875 C 288.859375 126.628906 282.875 125.253906 278.417969 128.140625 C 275.121094 130.273438 273.710938 134.085938 273.527344 137.488281 C 273.136719 144.378906 276.933594 153.007812 281.519531 155.839844 "/>
<path style=" stroke:none;fill-rule:nonzero;fill:rgb(60.023499%,51.647949%,11.143494%);fill-opacity:1;" d="M 344.90625 284.65625 L 344.90625 269.132812 C 346.257812 268.941406 347.683594 268.871094 349.894531 268.871094 C 356.191406 268.871094 360.1875 271.34375 360.1875 276.394531 C 360.1875 281.546875 356.296875 284.855469 350.164062 284.855469 C 348.3125 284.855469 346.34375 284.753906 344.90625 284.65625 M 352.382812 288.9375 C 360.90625 288.472656 367.214844 283.78125 367.214844 275.605469 C 367.214844 267.875 361.359375 263.703125 350.785156 263.703125 C 345.371094 263.703125 340.925781 263.785156 338.175781 263.886719 L 338.175781 310.082031 L 344.90625 310.082031 L 344.90625 289.554688 L 345.191406 289.554688 L 361.441406 310.082031 L 369.980469 310.082031 L 356.558594 293.816406 C 355.050781 291.957031 353.625 290.160156 352.382812 288.9375 "/>
<path style=" stroke:none;fill-rule:nonzero;fill:rgb(60.023499%,51.647949%,11.143494%);fill-opacity:1;" d="M 383.015625 310.082031 L 408.164062 310.082031 L 408.164062 304.660156 L 389.753906 304.660156 L 389.753906 288.84375 L 407.363281 288.84375 L 407.363281 283.6875 L 389.753906 283.6875 L 389.753906 269.132812 L 408.164062 269.132812 L 408.164062 263.886719 L 383.015625 263.886719 Z M 383.015625 310.082031 "/>
<path style=" stroke:none;fill-rule:nonzero;fill:rgb(60.023499%,51.647949%,11.143494%);fill-opacity:1;" d="M 426.648438 275.957031 C 426.648438 271.597656 430.023438 268.679688 437.222656 268.679688 C 440.046875 268.679688 444.054688 269.296875 446.632812 270.019531 L 446.976562 264.035156 C 444.246094 263.519531 440.410156 263.183594 437.566406 263.183594 C 426.28125 263.183594 419.625 268.492188 419.625 276.757812 C 419.625 291.507812 442.546875 286.808594 442.546875 296.835938 C 442.546875 302.886719 436.945312 305.097656 431.796875 305.097656 C 427.625 305.097656 423.707031 304.304688 420.871094 303.144531 L 420.605469 309.617188 C 423.195312 310.253906 427.273438 310.777344 430.902344 310.777344 C 441.230469 310.777344 449.738281 305.265625 449.738281 296.132812 C 449.738281 281.207031 426.648438 285.902344 426.648438 275.957031 "/>
<path style=" stroke:none;fill-rule:nonzero;fill:rgb(60.023499%,51.647949%,11.143494%);fill-opacity:1;" d="M 489.457031 263.886719 L 454.996094 263.886719 L 454.996094 269.46875 L 468.742188 269.46875 L 468.742188 310.082031 L 475.5 310.082031 L 475.5 269.46875 L 489.457031 269.46875 Z M 489.457031 263.886719 "/>
<path style=" stroke:none;fill-rule:nonzero;fill:rgb(60.023499%,51.647949%,11.143494%);fill-opacity:1;" d="M 501.859375 294.703125 L 508.082031 278.796875 C 509.238281 276.046875 510.121094 273.21875 510.753906 270.90625 L 510.847656 270.90625 C 511.558594 273.117188 512.53125 276.046875 513.601562 278.796875 L 519.71875 294.703125 Z M 507.457031 263.886719 L 489.25 310.082031 L 496 310.082031 L 500.003906 299.765625 L 521.589844 299.765625 L 525.492188 310.082031 L 532.960938 310.082031 L 515.007812 263.886719 Z M 507.457031 263.886719 "/>
<path style=" stroke:none;fill-rule:nonzero;fill:rgb(60.023499%,51.647949%,11.143494%);fill-opacity:1;" d="M 581.558594 263.886719 L 574.894531 263.886719 L 574.894531 292.222656 C 574.894531 299.855469 571.53125 305.199219 562.085938 305.199219 C 554.019531 305.199219 549.214844 301.453125 549.214844 293.296875 L 549.214844 263.886719 L 542.46875 263.886719 L 542.46875 294.246094 C 542.46875 304.917969 549.140625 310.777344 561.566406 310.777344 C 575.769531 310.777344 581.558594 302.34375 581.558594 292.570312 Z M 581.558594 263.886719 "/>
<path style=" stroke:none;fill-rule:nonzero;fill:rgb(60.023499%,51.647949%,11.143494%);fill-opacity:1;" d="M 606.128906 284.65625 L 606.128906 269.132812 C 607.472656 268.941406 608.886719 268.871094 611.101562 268.871094 C 617.417969 268.871094 621.402344 271.34375 621.402344 276.394531 C 621.402344 281.546875 617.492188 284.855469 611.371094 284.855469 C 609.515625 284.855469 607.566406 284.753906 606.128906 284.65625 M 631.203125 310.082031 L 617.785156 293.816406 C 616.265625 291.957031 614.84375 290.160156 613.601562 288.9375 C 622.132812 288.472656 628.4375 283.78125 628.4375 275.605469 C 628.4375 267.875 622.578125 263.703125 612 263.703125 C 606.570312 263.703125 602.148438 263.785156 599.386719 263.886719 L 599.386719 310.082031 L 606.128906 310.082031 L 606.128906 289.554688 L 606.402344 289.554688 L 622.65625 310.082031 Z M 631.203125 310.082031 "/>
<path style=" stroke:none;fill-rule:nonzero;fill:rgb(60.023499%,51.647949%,11.143494%);fill-opacity:1;" d="M 650.015625 294.703125 L 656.21875 278.796875 C 657.378906 276.046875 658.261719 273.21875 658.890625 270.90625 L 658.984375 270.90625 C 659.691406 273.117188 660.667969 276.046875 661.738281 278.796875 L 667.871094 294.703125 Z M 655.601562 263.886719 L 637.398438 310.082031 L 644.148438 310.082031 L 648.128906 299.765625 L 669.730469 299.765625 L 673.640625 310.082031 L 681.117188 310.082031 L 663.160156 263.886719 Z M 655.601562 263.886719 "/>
<path style=" stroke:none;fill-rule:nonzero;fill:rgb(60.023499%,51.647949%,11.143494%);fill-opacity:1;" d="M 725.171875 285.554688 C 725.171875 293.1875 725.339844 298.617188 725.519531 301.820312 L 725.429688 301.820312 C 723.738281 298.617188 721.78125 295.324219 719.851562 292.394531 L 701.175781 263.882812 L 692.378906 263.882812 L 692.378906 310.082031 L 698.945312 310.082031 L 698.875 283.953125 C 698.875 278.535156 698.6875 274.980469 698.523438 271.878906 L 698.605469 271.878906 C 700.019531 274.8125 701.894531 278.179688 703.941406 281.203125 L 722.847656 310.082031 L 731.734375 310.082031 L 731.734375 263.882812 L 725.058594 263.882812 Z M 725.171875 285.554688 "/>
<path style=" stroke:none;fill-rule:nonzero;fill:rgb(60.023499%,51.647949%,11.143494%);fill-opacity:1;" d="M 742.035156 269.46875 L 755.78125 269.46875 L 755.78125 310.082031 L 762.542969 310.082031 L 762.542969 269.46875 L 776.503906 269.46875 L 776.503906 263.886719 L 742.035156 263.886719 Z M 742.035156 269.46875 "/>
<path style=" stroke:none;fill-rule:nonzero;fill:rgb(60.023499%,51.647949%,11.143494%);fill-opacity:1;" d="M 581.761719 340.148438 C 581.761719 337.960938 583.429688 336.488281 587.058594 336.488281 C 588.484375 336.488281 590.492188 336.78125 591.777344 337.152344 L 591.972656 334.164062 C 590.578125 333.898438 588.644531 333.71875 587.238281 333.71875 C 581.566406 333.71875 578.226562 336.40625 578.226562 340.546875 C 578.226562 347.9375 589.75 345.578125 589.75 350.613281 C 589.75 353.636719 586.925781 354.761719 584.335938 354.761719 C 582.246094 354.761719 580.28125 354.359375 578.863281 353.773438 L 578.726562 357.039062 C 580 357.347656 582.070312 357.617188 583.894531 357.617188 C 589.054688 357.617188 593.339844 354.851562 593.339844 350.265625 C 593.339844 342.777344 581.761719 345.128906 581.761719 340.148438 "/>
<path style=" stroke:none;fill-rule:nonzero;fill:rgb(60.023499%,51.647949%,11.143494%);fill-opacity:1;" d="M 600.605469 357.265625 L 603.996094 357.265625 L 603.996094 334.078125 L 600.605469 334.078125 Z M 600.605469 357.265625 "/>
<path style=" stroke:none;fill-rule:nonzero;fill:rgb(60.023499%,51.647949%,11.143494%);fill-opacity:1;" d="M 629.640625 344.949219 C 629.640625 348.796875 629.710938 351.511719 629.808594 353.105469 L 629.765625 353.105469 C 628.910156 351.511719 627.933594 349.855469 626.949219 348.382812 L 617.585938 334.078125 L 613.191406 334.078125 L 613.191406 357.265625 L 616.46875 357.265625 L 616.417969 344.160156 C 616.417969 341.441406 616.339844 339.640625 616.261719 338.09375 L 616.292969 338.09375 C 617.027344 339.558594 617.953125 341.230469 618.976562 342.773438 L 628.476562 357.265625 L 632.910156 357.265625 L 632.910156 334.078125 L 629.578125 334.078125 Z M 629.640625 344.949219 "/>
<path style=" stroke:none;fill-rule:nonzero;fill:rgb(60.023499%,51.647949%,11.143494%);fill-opacity:1;" d="M 651.769531 354.585938 C 646.292969 354.585938 643.375 351.457031 643.375 345.785156 C 643.375 340.675781 645.984375 336.664062 651.464844 336.664062 C 653.246094 336.664062 655.082031 336.96875 656.949219 337.546875 L 657.25 334.480469 C 655.597656 334.03125 653.636719 333.804688 651.90625 333.804688 C 643.4375 333.804688 639.78125 339.464844 639.78125 346.152344 C 639.78125 353.292969 643.65625 357.5625 650.984375 357.5625 C 653.414062 357.5625 655.597656 357.117188 657.472656 356.375 L 657.207031 353.367188 C 655.652344 354.140625 653.636719 354.585938 651.769531 354.585938 "/>
<path style=" stroke:none;fill-rule:nonzero;fill:rgb(60.023499%,51.647949%,11.143494%);fill-opacity:1;" d="M 664.117188 357.265625 L 676.722656 357.265625 L 676.722656 354.542969 L 667.507812 354.542969 L 667.507812 346.597656 L 676.328125 346.597656 L 676.328125 344.019531 L 667.507812 344.019531 L 667.507812 336.703125 L 676.722656 336.703125 L 676.722656 334.078125 L 664.117188 334.078125 Z M 664.117188 357.265625 "/>
<path style=" stroke:none;fill-rule:nonzero;fill:rgb(60.023499%,51.647949%,11.143494%);fill-opacity:1;" d="M 690.863281 336.882812 L 691.488281 339.792969 L 696.746094 337.546875 L 696.746094 357.265625 L 700.175781 357.265625 L 700.175781 334.347656 L 697.417969 334.347656 Z M 690.863281 336.882812 "/>
<path style=" stroke:none;fill-rule:nonzero;fill:rgb(60.023499%,51.647949%,11.143494%);fill-opacity:1;" d="M 716.894531 351.015625 C 712.832031 351.015625 710.523438 348.46875 710.523438 343.96875 C 710.523438 339.972656 713.089844 336.78125 716.976562 336.78125 C 721.210938 336.78125 723.496094 340.082031 723.496094 344.8125 C 723.496094 348.039062 720.871094 351.015625 716.894531 351.015625 M 717.382812 333.980469 C 711.097656 333.980469 706.964844 338.582031 706.964844 344.597656 C 706.964844 350.335938 710.386719 354.011719 716.097656 354.011719 C 719.351562 354.011719 722.148438 352.558594 723.613281 350.335938 L 723.667969 350.335938 C 723.589844 351.058594 723.414062 352.1875 723.261719 352.796875 C 721.804688 359.433594 718.371094 363.195312 711.644531 363.195312 C 710.832031 363.195312 709.671875 363.015625 708.824219 362.789062 L 708.824219 365.949219 C 709.671875 366.09375 710.789062 366.171875 711.40625 366.171875 C 720.902344 366.171875 727.359375 359.746094 727.359375 346.921875 C 727.359375 337.914062 723.175781 333.980469 717.382812 333.980469 "/>
<path style=" stroke:none;fill-rule:nonzero;fill:rgb(60.023499%,51.647949%,11.143494%);fill-opacity:1;" d="M 742.167969 348.570312 L 742.167969 348.507812 C 745.464844 347.222656 747.78125 344.554688 747.78125 341.035156 C 747.78125 337.25 745.300781 333.980469 739.542969 333.980469 C 737.265625 333.980469 735.261719 334.421875 733.292969 335.269531 L 733.601562 338.175781 C 735.167969 337.328125 737.027344 336.78125 738.949219 336.78125 C 742.226562 336.78125 744.257812 338.582031 744.257812 341.554688 C 744.257812 345.785156 740.351562 347.808594 734.324219 347.808594 L 734.324219 350.484375 C 740.695312 349.855469 744.890625 351.820312 744.890625 356.59375 C 744.890625 360.339844 742.167969 363.222656 736.90625 363.222656 C 735.449219 363.222656 734.136719 363.015625 733.085938 362.703125 L 732.726562 365.734375 C 733.882812 365.996094 735.222656 366.175781 736.492188 366.175781 C 744.121094 366.175781 748.507812 361.769531 748.507812 356.058594 C 748.507812 352.183594 746.054688 349.175781 742.167969 348.570312 "/>
<path style=" stroke:none;fill-rule:nonzero;fill:rgb(60.023499%,51.647949%,11.143494%);fill-opacity:1;" d="M 764.683594 354.851562 C 760.222656 354.851562 758.195312 351.148438 758.195312 347.222656 C 758.195312 343.914062 760.359375 340.628906 764.808594 340.628906 C 768.726562 340.628906 771.140625 343.300781 771.140625 347.632812 C 771.140625 351.71875 768.652344 354.851562 764.683594 354.851562 M 765.523438 337.671875 C 761.957031 337.671875 759.199219 339.246094 757.808594 341.703125 L 757.773438 341.65625 C 757.945312 340.769531 758.039062 340.273438 758.117188 339.792969 C 759.28125 333.179688 762.765625 328.640625 769.539062 328.640625 C 770.335938 328.640625 771.089844 328.707031 771.820312 328.8125 L 771.820312 325.878906 C 771.316406 325.832031 770.425781 325.78125 769.933594 325.78125 C 761.023438 325.78125 754.332031 331.9375 754.332031 344.859375 C 754.332031 352.796875 757.90625 357.660156 764.136719 357.660156 C 770.484375 357.660156 774.753906 353.207031 774.753906 347.039062 C 774.753906 341.441406 771.269531 337.671875 765.523438 337.671875 "/>
</g>
</svg>
